<?xml version="1.0" encoding="utf-8"?>
<!-- Generator: Adobe Illustrator 19.0.0, SVG Export Plug-In . SVG Version: 6.00 Build 0)  -->
<svg version="1.1" id="图层_1" xmlns="http://www.w3.org/2000/svg" xmlns:xlink="http://www.w3.org/1999/xlink" x="0px" y="0px"
	 viewBox="0 0 80 80" style="enable-background:new 0 0 80 80;" xml:space="preserve">
<path id="XMLID_711_" d="M54,41h12v-9c0-3.3-2.7-6-6-6H16c-3.3,0-6,2.7-6,6v31c0,3.3,2.7,6,6,6h44c3.3,0,6-2.7,6-6V49H54
	c-2.2,0-4-1.8-4-4C50,42.8,51.8,41,54,41z"/>
<path id="XMLID_764_" d="M59.1,24l-5.2-9c-2.2-3.8-7.1-5.1-10.9-2.9L22.3,24H59.1z"/>
<circle id="XMLID_696_" cx="54.2" cy="45" r="2.5"/>
</svg>
