<?xml version="1.0" encoding="utf-8"?>
<!-- Generator: Adobe Illustrator 19.0.0, SVG Export Plug-In . SVG Version: 6.00 Build 0)  -->
<svg version="1.1" id="图层_1" xmlns="http://www.w3.org/2000/svg" xmlns:xlink="http://www.w3.org/1999/xlink" x="0px" y="0px"
	 viewBox="0 0 80 80" style="enable-background:new 0 0 80 80;" xml:space="preserve">
<g id="XMLID_5_">
	<g id="XMLID_43_">
		<path id="XMLID_44_" d="M63.9,18.6L40.9,9c-0.2-0.1-0.5-0.1-0.8,0l-23,9.6c-1.9,0.8-3.1,2.6-3.1,4.6v17.3c0,5,1.9,9.9,5.3,13.5
			c1.5,1.6,3.4,3.5,5.7,5.7c5.8,5.5,13,9.9,15,11c0.3,0.2,0.7,0.2,1,0c2-1.2,9.2-5.6,15-11c2.3-2.2,4.2-4.1,5.7-5.7
			c3.4-3.7,5.3-8.5,5.3-13.5V23.2C67,21.2,65.8,19.3,63.9,18.6z M61,40.5c0,3.5-1.3,6.9-3.7,9.5c-1.6,1.7-3.4,3.5-5.4,5.4
			c-3.9,3.6-8.4,6.8-11.4,8.7c-3-1.9-7.5-5-11.4-8.7c-2-1.9-3.8-3.7-5.4-5.4C21.3,47.3,20,44,20,40.5V23.8l20.5-8.5L61,23.8V40.5z"
			/>
	</g>
</g>
<g id="XMLID_6_">
	<path id="XMLID_24_" d="M40.5,17.5v44.1c2.9-1.9,6.7-4.7,10-7.7c2-1.8,3.7-3.6,5.3-5.3c2.1-2.2,3.2-5.1,3.2-8.1V25.2L40.5,17.5z"/>
</g>
</svg>
