<?xml version="1.0" encoding="utf-8"?>
<!-- Generator: Adobe Illustrator 19.0.0, SVG Export Plug-In . SVG Version: 6.00 Build 0)  -->
<svg version="1.1" id="图层_1" xmlns="http://www.w3.org/2000/svg" xmlns:xlink="http://www.w3.org/1999/xlink" x="0px" y="0px"
	 viewBox="0 0 80 80" style="enable-background:new 0 0 80 80;" xml:space="preserve">
<g id="XMLID_25_">
	<path id="XMLID_8_" d="M10,9v62h56V9H10z M15.5,15.8H31v3.3H15.5V15.8z M15.5,25.8H31v3.3H15.5V25.8z M15.5,35.8H31v3.3H15.5V35.8z
		 M60.3,59.2H15.5v-3.3h44.8V59.2z M60.3,49.2H15.5v-3.3h44.8V49.2z M48.7,39.2c-6.4,0-11.7-5.2-11.7-11.7c0-6.4,5.2-11.7,11.7-11.7
		c6.4,0,11.7,5.2,11.7,11.7C60.3,33.9,55.1,39.2,48.7,39.2z"/>
	<g id="XMLID_33_">
		
			<rect id="XMLID_30_" x="41.9" y="27.7" transform="matrix(0.7071 0.7071 -0.7071 0.7071 34.071 -23.5679)" width="7.1" height="3.3"/>
		
			<rect id="XMLID_31_" x="43.8" y="25.8" transform="matrix(-0.7071 0.7071 -0.7071 -0.7071 104.8101 11.5863)" width="12.3" height="3.3"/>
	</g>
</g>
</svg>
