<?xml version="1.0" encoding="utf-8"?>
<!-- Generator: Adobe Illustrator 19.0.0, SVG Export Plug-In . SVG Version: 6.00 Build 0)  -->
<svg version="1.1" id="图层_1" xmlns="http://www.w3.org/2000/svg" xmlns:xlink="http://www.w3.org/1999/xlink" x="0px" y="0px"
	 viewBox="0 0 80 80" style="enable-background:new 0 0 80 80;" xml:space="preserve">
<g id="XMLID_1315_">
	<path id="XMLID_6_" d="M39.5,12L14.9,30l9.4,29h30.4l9.4-29L39.5,12z M47.1,46.9l-7.6-4l-7.6,4l1.5-8.5l-6.1-6l8.5-1.2l3.8-7.7
		l3.8,7.7l8.5,1.2l-6.1,6L47.1,46.9z"/>
	<polygon id="XMLID_1321_" points="28,52 8.6,52 1.1,59.5 8.6,67 28,67 	"/>
	<polygon id="XMLID_1319_" points="50,52 71.4,52 78.9,59.5 71.4,67 50,67 	"/>
	<polygon id="XMLID_1317_" points="60.9,48 17.4,48 10,55.5 17.4,63 60.9,63 69,55.5 	"/>
</g>
</svg>
