<?xml version="1.0" encoding="utf-8"?>
<!-- Generator: Adobe Illustrator 19.0.0, SVG Export Plug-In . SVG Version: 6.00 Build 0)  -->
<svg version="1.1" id="图层_1" xmlns="http://www.w3.org/2000/svg" xmlns:xlink="http://www.w3.org/1999/xlink" x="0px" y="0px"
	 viewBox="0 0 80 80" style="enable-background:new 0 0 80 80;" xml:space="preserve">
<g id="XMLID_1193_">
	<path id="XMLID_6_" d="M23,12v32h18.3l4.3,5H50v6h-0.3l0.3,0.5V64h18V12H23z M28,17h10v4H28V17z M28,31h30v4H28V31z M60,42H28v-4
		h32V42z M63,28H28v-4h35V28z"/>
	<path id="XMLID_9_" d="M49,50h-3.8l-4.3-5H18.2l-4.3,5H9v4h2.3L9,55.8V70h10v-3h20v3h10V55.8L47.8,54H49V50z M17.6,61.8h-6.5v-3.2
		h6.5V61.8z M14.1,54l5.1-7h20.7l5.1,7H14.1z M46.8,61.8h-6.5v-3.2h6.5V61.8z"/>
</g>
</svg>
