<?xml version="1.0" encoding="utf-8"?>
<!-- Generator: Adobe Illustrator 19.0.0, SVG Export Plug-In . SVG Version: 6.00 Build 0)  -->
<svg version="1.1" id="图层_1" xmlns="http://www.w3.org/2000/svg" xmlns:xlink="http://www.w3.org/1999/xlink" x="0px" y="0px"
	 viewBox="0 0 80 80" style="enable-background:new 0 0 80 80;" xml:space="preserve">
<path id="XMLID_6_" d="M51.8,18.9c0.6,3.8,0.6,6.6,0,8.8c-0.2,0.9-1.6,1-1.9,0.1C46.4,18.3,38.9,7.1,32,7.1c1.7,9.7-4.8,21-9.6,26.9
	c-0.6,0.7-1.7,0.4-1.8-0.5c-0.3-3.1-1.3-5.5-2.4-7c0,6.6-8.9,16.3-8.9,24.4C9.4,65.5,23.3,74,38,74s27.7-11.9,27.7-26.6
	C65.7,37.6,59,23,51.8,18.9z M48.4,48.7L33.1,67c-0.5,0.7-1.3,0.2-1.4-0.7l2-12.2h-6.4c-0.7,0-1-0.8-0.6-1.5L42,34.4
	c0.5-0.7,1.3-0.3,1.4,0.6l-2,12h6.4C48.4,47,48.8,48,48.4,48.7z"/>
</svg>
