<?xml version="1.0" encoding="utf-8"?>
<!-- Generator: Adobe Illustrator 19.0.0, SVG Export Plug-In . SVG Version: 6.00 Build 0)  -->
<svg version="1.1" id="图层_1" xmlns="http://www.w3.org/2000/svg" xmlns:xlink="http://www.w3.org/1999/xlink" x="0px" y="0px"
	 viewBox="0 0 80 80" style="enable-background:new 0 0 80 80;" xml:space="preserve">
<path id="XMLID_6_" d="M73.1,31.3C73.1,21,64.7,12,54,12c-5.5,0-14.6,6.2-14.6,6.2S31.7,12,26.2,12C15.6,12,7,21,7,31.3
	c0,0-0.8,9.8,12.1,22.6c8.1,8,20.8,14.1,20.8,14.1s12.6-6.2,20.6-14.1C73.4,41.1,73.1,31.3,73.1,31.3z M67,39H55.2l-2.8,3.6
	c-0.2,0.3-0.5,0.4-0.9,0.4c-0.3,0-0.6-0.2-0.8-0.5l-3.9-6.6l-1.7,2.7c-0.2,0.3-0.5,0.5-0.8,0.5h-14L28,45.2
	c-0.1,0.4-0.5,0.8-0.9,0.8c0,0,0,0,0,0c-0.4,0-0.8-0.4-0.9-0.8l-4.7-12.9l-2.1,6c-0.1,0.4-0.5,0.6-0.9,0.6H12c-0.6,0-1-0.4-1-1
	s0.4-1,1-1h5.7l2.8-8c0.1-0.4,0.5-0.7,0.9-0.7c0.4,0,0.8,0.3,0.9,0.7l4.7,12.9l1.6-4.2c0.1-0.4,0.5-0.7,0.9-0.7h14.1l2.3-3.7
	c0.2-0.3,0.5-0.5,0.9-0.5c0.3,0,0.7,0.2,0.8,0.5l4,6.8l2.2-2.8c0.2-0.2,0.5-0.4,0.8-0.4H67c0.6,0,1,0.4,1,1S67.6,39,67,39z"/>
</svg>
